inDegrees=no
num_controls=7
num_derivatives=13
num_iterations=130
num_multipliers=7
num_parameters=0
num_slacks=7
num_states=26
objective=5.645091
objective_accelerations=0.639314
objective_balance=0.050687
objective_effort=0.514311
objective_height=4.378961
objective_ligament=0.061818
solver_duration=1525.953803
status=Solve_Succeeded
success=true
DataType=double
version=3
OpenSimVersion=4.4-2022-07-23-0e9fedc
endheader
time	/jointset/ground_pelvis/pelvis_tilt/value	/jointset/ground_pelvis/pelvis_tx/value	/jointset/ground_pelvis/pelvis_ty/value	/jointset/hip_l/hip_flexion_l/value	/jointset/hip_l/hip_adduction_l/value	/jointset/hip_l/hip_rotation_l/value	/jointset/back/lumbar_extension/value	/jointset/patellofemoral_l/patellar_flexion_l/value	/jointset/knee_l/knee_flexion_l/value	/jointset/knee_l/knee_adduction_l/value	/jointset/knee_l/knee_rotation_l/value	/jointset/ankle_l/ankle_angle_l/value	/jointset/subtalar_l/subtalar_angle_l/value	/jointset/ground_pelvis/pelvis_tilt/speed	/jointset/ground_pelvis/pelvis_tx/speed	/jointset/ground_pelvis/pelvis_ty/speed	/jointset/hip_l/hip_flexion_l/speed	/jointset/hip_l/hip_adduction_l/speed	/jointset/hip_l/hip_rotation_l/speed	/jointset/back/lumbar_extension/speed	/jointset/patellofemoral_l/patellar_flexion_l/speed	/jointset/knee_l/knee_flexion_l/speed	/jointset/knee_l/knee_adduction_l/speed	/jointset/knee_l/knee_rotation_l/speed	/jointset/ankle_l/ankle_angle_l/speed	/jointset/subtalar_l/subtalar_angle_l/speed	/forceset/tau_hip_flexion_l	/forceset/tau_hip_adduction_l	/forceset/tau_hip_rotation_l	/forceset/tau_knee_flexion_l	/forceset/tau_ankle_angle_l	/forceset/tau_subtalar_angle_l	/forceset/tau_lumbar_extension	lambda_cid13_p0	lambda_cid13_p1	lambda_cid13_p2	lambda_cid13_p3	lambda_cid13_p4	lambda_cid13_p5	lambda_cid14_p0	/jointset/ground_pelvis/pelvis_tilt/accel	/jointset/ground_pelvis/pelvis_tx/accel	/jointset/ground_pelvis/pelvis_ty/accel	/jointset/hip_l/hip_flexion_l/accel	/jointset/hip_l/hip_adduction_l/accel	/jointset/hip_l/hip_rotation_l/accel	/jointset/back/lumbar_extension/accel	/jointset/patellofemoral_l/patellar_flexion_l/accel	/jointset/knee_l/knee_flexion_l/accel	/jointset/knee_l/knee_adduction_l/accel	/jointset/knee_l/knee_rotation_l/accel	/jointset/ankle_l/ankle_angle_l/accel	/jointset/subtalar_l/subtalar_angle_l/accel	gamma_cid13_p0	gamma_cid13_p1	gamma_cid13_p2	gamma_cid13_p3	gamma_cid13_p4	gamma_cid13_p5	gamma_cid14_p0
0.5	-0.503234991094466	-0.1140692994637065	0.7513368679993848	1.343059479914638	-0.3107576054764195	-0.06877556521586879	-0.3386695203611565	0.6299535804851256	0.6299535804852039	-0.1740892592312215	0.1703551669439303	-0.05204242629561494	-0.06707950082450168	-0.9071479170440438	-0.3578831625201429	-0.5306007253940846	2.568768901670891	-0.06264890469964764	0.5162334767370993	-0.6130482646725871	1.607683052859891	1.607683052860043	-0.002740962133401225	0.02685496845984319	0.007635527419544761	-0.07614021825267989	-0.2746135341430244	0.005159691966689082	-0.0189990285925172	-0.1890928628959981	0.1973003209710493	0.04651853854383065	0.2385211048434034	24.10813757714003	-26.38666613122579	6.045989619689306	-9.132009360460447	-609.2282653092005	-64.0108531881301	-31.48099109340474	0.7085197544835371	0.8442666238175647	-0.263803606187914	-1.753173952099714	0.4774133022072214	-0.1909705639648927	1.960368448919691	-1.068595902031971	-1.068595902031967	0.0447655112474471	-0.0843547988195342	0.06740763428291298	0.4771110580145965	1.921308474415453e-08	-7.858562975651036e-07	1.825722641424791e-07	-1.581647134529496e-07	-1.871276627975998e-07	1.934697108594377e-07	-1.348914875994758e-07
0.51	-0.5122690690889036	-0.1176055463026387	0.746018783642421	1.368655215700309	-0.3113611944107749	-0.06362420363840474	-0.3447023231850829	0.6459749070298721	0.6459749070298666	-0.1741158070250735	0.1706207974056312	-0.05196311072952341	-0.06781802921275476	-0.8995504815850032	-0.3493389447270588	-0.5329080779384472	2.550052470426419	-0.05807335729970656	0.5139820152671037	-0.5934629039703042	1.596366011359447	1.59636601135951	-0.002571993159711837	0.02626044782136417	0.008204439321354895	-0.07157123382822518	-0.2837097214877187	0.005582799832654141	-0.01913152854472483	-0.1901767232259467	0.1993811179075071	0.04724684876227176	0.2453666747533162	24.48990241280108	-26.6545985166393	5.957099874999414	-9.356742208235486	-614.2098469898774	-63.71517436705145	-30.62717883711712	0.8029245648039683	0.8635576078576815	-0.1980270907475713	-1.979759239887553	0.4470501272331988	-0.250904480181277	1.965029302518872	-1.19566823858397	-1.195668238597476	0.002312404456154528	-0.04869727954974937	0.04816343815808778	0.4460223652639369	1.222085233163249e-08	-7.322822334797592e-07	1.947925475094999e-07	-1.493428945532387e-07	-1.756014811901746e-07	2.031946340927952e-07	-1.323697707915702e-07
0.52	-0.5212236589040954	-0.1210555393134795	0.7406808605575771	1.394054010867688	-0.311919142937467	-0.05849709078401717	-0.3505377905176561	0.661876581166671	0.6618765811666537	-0.1741407951662	0.1708801433444517	-0.05187879995037155	-0.06851102171064197	-0.8912502811983695	-0.3406323969018761	-0.5345684709701494	2.529380778011304	-0.05352082316589519	0.5113837321305095	-0.5735811664025633	1.583752571277666	1.583752571277639	-0.00242903162499764	0.02559806385536379	0.008634570024274408	-0.06703304017965564	-0.2928059088324865	0.006005907698476071	-0.01926402849556126	-0.191260583556111	0.2014619148439085	0.04797515898056236	0.252212244663204	24.86218287798994	-26.92259634120107	5.870192108726881	-9.548930709958491	-619.3287206319242	-63.46548770129526	-29.7568885682701	0.8490727400024833	0.8767326302367581	-0.1344117036560185	-2.144226186228068	0.4728106489813328	-0.2603348972845785	2.019643822011358	-1.327875618299436	-1.327875618299538	0.03956402345221852	-0.09792746432389862	0.03965139450388534	0.4709529028372902	5.338858032832198e-09	-6.78536928950973e-07	2.091318139024038e-07	-1.396452212592085e-07	-1.644844607235869e-07	2.112498622963699e-07	-1.296342479728076e-07
0.53	-0.5300918662761963	-0.1244177120054664	0.7353295779498874	1.419236562523182	-0.3124316559225094	-0.05339762216124176	-0.356172992720477	0.6776458196721975	0.6776458196721605	-0.1741643493310482	0.1711324826325828	-0.05179077595958067	-0.06915874229916086	-0.8822795039525476	-0.3317795113457206	-0.5355780056665507	2.506815013955635	-0.04898865249900736	0.5084409037797347	-0.5534207534429516	1.569895154387748	1.569895154387789	-0.002275436049945759	0.02487226338957635	0.008956602610389913	-0.0625173389465518	-0.3017092019079525	0.006253041494207122	-0.01942962735168797	-0.1924165139140162	0.2037817347107886	0.04852234215304894	0.2588640925419242	25.31421795470955	-27.13186875597475	5.780745278396559	-9.819678477441364	-624.3467560617806	-63.12028013769857	-28.87351803685237	0.9378215520157632	0.8929341291615529	-0.06774934688633623	-2.359947014420476	0.4424632394318029	-0.3217576404606385	2.020018141101743	-1.444645401202524	-1.44464540119238	0.004092072223888273	-0.05962953722448655	0.02643792966403135	0.4410156542379072	-4.146266350705369e-08	-5.649837308471395e-07	4.230691315856601e-07	-8.560965492343524e-08	-1.789072416715716e-07	2.533877457874253e-07	-1.476733722098923e-07
0.54	-0.5388670176088055	-0.1276906823197206	0.7299714949963833	1.444184017438275	-0.3128990386081035	-0.04832968198927935	-0.36160543517207	0.6932704898734572	0.6932704898734042	-0.1741862005905648	0.1713776192761831	-0.05169993989509986	-0.06976147849121064	-0.872639073300979	-0.3227919213553237	-0.5359285401330532	2.482361429932599	-0.04449476327653762	0.5050780419694884	-0.5330292161567076	1.554838910423242	1.554838910423351	-0.002088450567211672	0.02415753494305209	0.00919698475644108	-0.05803616088580837	-0.310612494983481	0.006500175289916386	-0.01959522620748956	-0.193572444271952	0.206101554577674	0.04906952532551483	0.2655159404205761	25.75701129657126	-27.34143202130581	5.693525282120849	-10.06324950454635	-629.5019734214766	-62.81979037045065	-27.98044912809457	0.9830034211521838	0.9036735170845686	-0.002611657676401239	-2.521790179701293	0.4651543600976738	-0.344341589178809	2.065868687337873	-1.567641033217364	-1.567641033217332	0.04624200498846753	-0.09571306047138546	0.0233213064902372	0.46404826836497	-1.324304705051624e-07	-3.852600972985721e-07	8.578383358029261e-07	1.74806015861818e-08	-2.215868241846153e-07	3.332340989582473e-07	-1.88697212338553e-07
0.55	-0.5475425683796834	-0.130873227902209	0.724613189549127	1.468877675777881	-0.3133219642875456	-0.04329585777306239	-0.3668328921855578	0.7087383360766414	0.7087383360767937	-0.1742073487573711	0.1716144545362412	-0.05160731427792562	-0.07031989736571617	-0.8623637612830297	-0.3137056906010469	-0.5356239291189218	2.456074462127437	-0.04009943099396848	0.5016188657252455	-0.5124396473559211	1.538542600436239	1.538542600436342	-0.002134626306331786	0.02321417545063183	0.009312401096119038	-0.0536564480143544	-0.3193627495326947	0.00663219781723638	-0.01972844982484435	-0.1944845965745158	0.2079857354136789	0.0495385615135747	0.2719530368332737	26.07016794599305	-27.49635418830382	5.599874382293325	-10.14324649601575	-634.4165085670272	-62.4299391097417	-27.08282600225137	1.065866040766021	0.9128382768797632	0.06324153712933561	-2.726549046791359	0.425275987519714	-0.3570899724839357	2.058881854563119	-1.688743234043505	-1.688743234044535	-0.02906695585595151	-0.09318782308615825	0.003305858368544128	0.4235248821889502	-1.772094625501151e-07	-2.691784306568492e-07	1.074928858856282e-06	7.167871041816288e-08	-2.336453201417754e-07	3.74524993340631e-07	-2.056637996962015e-07
0.5600000000000001	-0.5561121518406449	-0.1339645630926988	0.7192611790232468	1.493299584646256	-0.3137012259791145	-0.03829870218534131	-0.3718537773354161	0.7240375957294756	0.7240375957297682	-0.1742287626001712	0.1718419481154056	-0.0515140036851944	-0.07083480069437742	-0.8514456113191262	-0.3045498429556062	-0.5346695558578496	2.428011535687544	-0.03576196570410445	0.4977443162635491	-0.4917148434305672	1.521121600345166	1.521121600345264	-0.002141585745176751	0.0222891987798681	0.009333979862270077	-0.04933305171676005	-0.3281130040819186	0.006764220344669513	-0.01986167344301667	-0.1953967488769092	0.2098699162497549	0.05000759770175641	0.2783901332459044	26.37761974402753	-27.65331403200697	5.510017295889359	-10.22974293055139	-639.4321624851007	-62.10207543412553	-26.18848898676926	1.111571010343273	0.9175968953168943	0.1273407917116015	-2.876981906647404	0.4535809615565231	-0.427416232669437	2.0929157122514	-1.792579054031352	-1.792579054031079	0.05408526504333892	-0.09203649614022338	0.004553791784125297	0.4527849535928468	-1.665618766512822e-07	-2.294671243033374e-07	1.030804964512955e-06	6.720624203698275e-08	-2.089585122318762e-07	3.695493371768902e-07	-1.937616837286364e-07
0.5700000000000001	-0.5645695071757348	-0.1369640606661596	0.7139219526362913	1.517432253167567	-0.3140373179856862	-0.03334216097026269	-0.3766668196491443	0.7391571134763206	0.7391571134765325	-0.1742499430133163	0.1720600769725599	-0.05142088047243332	-0.07130665894240394	-0.8399276584909589	-0.2953441056606961	-0.5330663964496658	2.398235337863206	-0.03147152970215234	0.4935120478420674	-0.4708874425419709	1.502592955078927	1.502592955078941	-0.00210339335625746	0.02132826286263861	0.009274753103457883	-0.04505331961592844	-0.3365116044184268	0.00670926589054858	-0.01997522842079281	-0.1964472118538583	0.2119092328680036	0.05025505690796871	0.2844970901395525	26.7398068179475	-27.73113917530221	5.416124504079936	-10.31511529250796	-644.2563204385821	-61.66149281009888	-25.298251160279	1.186552517552593	0.9229099920037029	0.1931632786405553	-3.070992293055454	0.4144193437613718	-0.4290815505391035	2.078578793486834	-1.911318949904599	-1.911318949917325	-0.02264256585963046	-0.09958525940352053	-0.0135319702310816	0.4132738955669453	-1.493033404667127e-07	-2.024109122999055e-07	9.479512441269315e-07	5.602121341220555e-08	-1.817065025508768e-07	3.544874188974788e-07	-1.778145935968136e-07
